# xmcd
#
# Track frame offsets:
#	182
#	22770
#	38292
#	57627
#	66967
#	79790
#	97652
#	126225
#	144970
#	160652
#
# Disc length: 2334 seconds
#
# Revision: 4
# Processed by: cddbd v1.5.2PL0 Copyright (c) Steve Scherf et al.
# Submitted via: EasyCDDAExtractor 11.9.9.666
#
DISCID=70091c0a
DTITLE=Blues Etilicos - San - Ho - Zay
DYEAR=1990
DGENRE=Blues
TTITLE0=San-Ho-Zay
TTITLE1=Walking the Streets
TTITLE2=My Babe She's Gonna Leave Me
TTITLE3=Boogie Pro Lao
TTITLE4=No Way
TTITLE5=What's On Your Mind
TTITLE6=Last Night
TTITLE7=Juker
TTITLE8=You Mean Trouble
TTITLE9=If I Had Possession Over Judgement Day
EXTD=
EXTT0=
EXTT1=
EXTT2=
EXTT3=
EXTT4=
EXTT5=
EXTT6=
EXTT7=
EXTT8=
EXTT9=
PLAYORDER=
